<svg width="500" height="100" viewBox="0 0 500 100" fill="none" xmlns="http://www.w3.org/2000/svg">
  <defs>
    <linearGradient id="hexGradient1" x1="0%" y1="0%" x2="100%" y2="100%">
      <stop offset="0%" stop-color="#8B5CF6" />
      <stop offset="100%" stop-color="#EC4899" />
    </linearGradient>
    <linearGradient id="hexGradient2" x1="0%" y1="0%" x2="100%" y2="100%">
      <stop offset="0%" stop-color="#06B6D4" />
      <stop offset="100%" stop-color="#8B5CF6" />
    </linearGradient>
    <linearGradient id="textGradient" x1="0%" y1="0%" x2="100%" y2="0%">
      <stop offset="0%" stop-color="#8B5CF6" />
      <stop offset="50%" stop-color="#06B6D4" />
      <stop offset="100%" stop-color="#EC4899" />
    </linearGradient>
  </defs>

  <!-- Icon part -->
  <g transform="translate(0, 0)">
    <circle cx="50" cy="50" r="45" stroke="url(#hexGradient1)" stroke-width="1" fill="none" opacity="0.2" />

    <path
      d="M 50 10 L 70 25 L 70 55 L 50 70 L 30 55 L 30 25 Z"
      fill="url(#hexGradient1)"
      opacity="0.8"
    />

    <path
      d="M 50 30 L 70 45 L 70 75 L 50 90 L 30 75 L 30 45 Z"
      fill="url(#hexGradient2)"
      opacity="0.9"
    />

    <line x1="50" y1="10" x2="50" y2="30" stroke="#8B5CF6" stroke-width="2" opacity="0.6" />
    <line x1="30" y1="55" x2="30" y2="75" stroke="#06B6D4" stroke-width="2" opacity="0.6" />
    <line x1="70" y1="55" x2="70" y2="75" stroke="#EC4899" stroke-width="2" opacity="0.6" />

    <circle cx="50" cy="52" r="4" fill="#FFFFFF" opacity="0.9" />
    <circle cx="50" cy="52" r="6" fill="none" stroke="#FFFFFF" stroke-width="1" opacity="0.5" />
  </g>

  <!-- Text "ProveChain" -->
  <text
    x="120"
    y="65"
    font-family="system-ui, -apple-system, sans-serif"
    font-size="42"
    font-weight="700"
    fill="url(#textGradient)"
  >
    ProveChain
  </text>
</svg>
